<svg t="1710000000000" class="icon" viewBox="0 0 1024 1024" version="1.1" xmlns="http://www.w3.org/2000/svg">
  <path d="M1024 706.2V317.8c0-175.4-142.4-317.8-317.8-317.8H317.8C142.4 0 0 142.4 0 317.8v388.4C0 881.6 142.4 1024 317.8 1024h388.4c175.4 0 317.8-142.4 317.8-317.8z" fill="#009FE9"/>
  <path d="M838.9 674.6c-42.2-18.8-97.5-45.2-161.5-75.4 13.4-23.2 24.4-48.6 32.8-75.4 8.4-26.8 13.9-56.2 16.4-88.2H577.2v-62.8h183.2v-31.4H577.2V248h-94.1c-8.4 0-15.2 6.8-15.2 15.2v78.2H297.1v31.4h170.8v62.8H328.5v31.4h273.8c-2.5 26.8-7.5 51.6-15 74.4-7.5 22.8-17 43.7-28.4 62.8-11.4 19.1-23.9 35.9-37.3 50.6-13.4 14.7-26.4 26.8-38.8 36.4-12.4 9.6-23.4 16.9-32.8 21.8-9.5 5-16.4 7.5-20.9 7.5-4.5 0-7-1.5-7.5-4.5-0.5-3 0.5-6.5 3-10.5 2.5-4 6-8.5 10.5-13.5 4.5-5 8.5-11 11.9-18.1 3.5-7.1 5.2-14.6 5.2-22.6 0-7-1.2-13.5-3.7-19.6-2.5-6-5.7-11.3-9.7-15.7-4-4.5-8.5-8-13.4-10.5-5-2.5-10-3.7-15-3.7-5 0-10 1.2-15 3.7-5 2.5-9.5 6-13.4 10.5-4 4.5-7.2 9.7-9.7 15.7-2.5 6-3.7 12.6-3.7 19.6 0 8 1.7 15.5 5.2 22.6 3.5 7.1 7.5 13.1 11.9 18.1 4.5 5 8 9.5 10.5 13.5 2.5 4 3.5 7.5 3 10.5-0.5 3-3 4.5-7.5 4.5-4.5 0-11.4-2.5-20.9-7.5-9.5-5-20.4-12.3-32.8-21.8-12.4-9.6-25.4-21.7-38.8-36.4-13.4-14.7-25.9-31.5-37.3-50.6-11.4-19.1-20.9-40-28.4-62.8-7.5-22.8-12.5-47.6-15-74.4h273.8v-31.4H328.5v-62.8h170.8V263.2c0-8.4-6.8-15.2-15.2-15.2h-94.1v93.4H206.8v31.4h183.2v62.8H206.8v31.4h149.4c2.5 32 8 61.4 16.4 88.2 8.4 26.8 19.4 52.2 32.8 75.4-64 30.2-119.3 56.6-161.5 75.4-42.2 18.8-64.8 31.4-67.8 37.8-3 6.4 0 11.9 9 16.4 9 4.5 23.9 6.8 44.8 6.8 20.9 0 45.2-3 73.1-9 27.9-6 58.2-15 91.1-27 32.8-12 68.3-27.4 106.3-46.2 38.1 18.8 73.5 34.2 106.3 46.2 32.8 12 63.2 21 91.1 27 27.9 6 52.2 9 73.1 9 20.9 0 35.8-2.3 44.8-6.8 9-4.5 12-10 9-16.4-3-6.4-25.6-19-67.8-37.8z" fill="#FFFFFF"/>
</svg> 