<svg t="1710000000000" class="icon" viewBox="0 0 1024 1024" version="1.1" xmlns="http://www.w3.org/2000/svg">
  <path d="M1024 706.2V317.8c0-175.4-142.4-317.8-317.8-317.8H317.8C142.4 0 0 142.4 0 317.8v388.4C0 881.6 142.4 1024 317.8 1024h388.4c175.4 0 317.8-142.4 317.8-317.8z" fill="#07C160"/>
  <path d="M692.1 347.6c11.8 0 23.5 0.9 35 2.6-31.4-146.2-187.9-254.9-366.5-254.9-199.7 0-363.8 136-363.8 307.9 0 99.5 54.3 181.4 145.1 244.9l-36.2 109 126.6-63.6c45.3 8.9 81.6 18.2 126.9 18.2 11.4 0 22.7-0.6 33.9-1.5-7.1-24.3-11.2-49.8-11.2-76.2 0.1-158.7 136.1-286.4 310.2-286.4z m-196-98.7c27.3 0 45.3 17.9 45.3 45.1 0 27.1-18 45.3-45.3 45.3-27.1 0-54.3-18.2-54.3-45.3 0-27.2 27.2-45.1 54.3-45.1z m-253.5 90.4c-27.1 0-54.6-18.2-54.6-45.3 0-27.2 27.4-45.1 54.6-45.1 27.2 0 45.1 17.9 45.1 45.1 0 27.1-17.9 45.3-45.1 45.3z" fill="#FFFFFF"/>
  <path d="M1024.8 629.7c0-145.3-145.1-263.7-308.1-263.7-172.6 0-308.4 118.4-308.4 263.7 0 145.6 135.8 263.7 308.4 263.7 36.1 0 72.4-9.1 108.7-18.2l99.4 54.3-27.2-90.4c72.6-54.6 127.2-127.2 127.2-209.4z m-407.8-45.3c-18 0-36.2-17.9-36.2-36.2 0-18 18.2-36.2 36.2-36.2 27.4 0 45.3 18.2 45.3 36.2 0 18.2-17.9 36.2-45.3 36.2z m199.7 0c-18 0-36.1-17.9-36.1-36.2 0-18 18.2-36.2 36.1-36.2 27.2 0 45.3 18.2 45.3 36.2 0 18.2-18.1 36.2-45.3 36.2z" fill="#FFFFFF"/>
</svg> 